# Blender 3.3.1
# www.blender.org
mtllib bunny_low_poly.mtl
o bunny
v -1.094222 1.814202 0.202933
v -0.128430 2.159872 -0.350557
v 0.210677 1.456488 0.403725
v -1.023485 1.310349 0.059118
v -0.749968 1.869084 0.056755
v -0.715173 0.554639 0.521737
v -0.181767 1.926785 -0.099367
v -0.621755 1.843345 0.150604
v -0.191324 0.597735 0.586108
v -0.456287 0.577582 0.472736
v -0.330419 0.527709 0.643535
v 0.128923 0.535509 0.543514
v 0.199154 0.666651 0.595121
v -0.494410 1.269171 0.480538
v -0.950199 1.600387 0.642608
v -1.063336 1.496269 -0.005015
v -0.756719 1.835620 -0.024261
v -0.331729 0.656879 0.430917
v -0.928358 1.817811 -0.042067
v -0.588749 0.603866 0.437677
v 0.002881 0.684846 0.669563
v -0.698343 1.829763 0.396592
v -0.365047 2.123251 -0.049021
v 0.591992 0.676034 0.393050
v -1.071601 1.356555 0.534041
v -0.105556 1.525990 0.367044
v -0.918306 1.868570 0.330473
v -0.354285 1.422917 0.360618
v 0.528373 1.189973 0.041748
v -0.042162 0.880640 0.697208
v 0.155821 0.994301 0.657158
v -0.812213 1.392875 -0.116547
v -1.091736 1.125898 0.195861
v 0.562305 0.876643 0.240262
v -0.884813 1.352263 0.604765
v -0.676352 1.755130 -0.018949
v -0.095148 1.535976 -0.044829
v -0.941522 1.281173 0.415305
v -0.501509 1.101588 0.528434
v -0.975878 1.082022 -0.130213
v -0.781134 0.886415 0.490036
v 0.097593 1.578041 0.234643
v -1.138451 1.419930 0.213692
v -0.267120 0.981851 0.680871
v -0.373547 1.087643 0.528651
v -0.084645 1.151475 0.662556
v -0.694385 1.377864 0.442095
v -0.786444 1.078938 0.538979
v 0.170719 1.202182 0.571125
v -0.842114 1.884481 -0.009129
v -0.317667 1.250420 0.508010
v -0.335139 1.514175 0.129357
v -0.019820 1.244340 0.537954
v -0.660172 1.221028 -0.253142
v -0.841175 1.696063 -0.103124
v 0.207783 0.433137 0.518315
v -0.311873 0.432096 0.653079
v -0.592671 1.714374 0.058777
v -0.018435 1.350739 -0.243807
v -0.741657 0.423056 0.540828
v -0.105701 2.011211 -0.259982
v -0.431882 1.021235 -0.277271
v -1.018132 0.917279 0.136137
v -0.795805 1.453218 0.605503
v 0.675718 0.599252 0.246821
v 0.406092 1.113386 0.487526
v 0.452899 0.658569 0.393273
v 0.519915 1.125497 0.305264
v 0.706447 0.852150 0.240140
v -0.677836 1.671168 0.372373
v 0.346534 0.881527 0.525118
v -1.058787 1.676180 0.462286
v -1.088227 1.641133 0.194876
v -1.117691 1.430309 0.457749
v 0.609981 0.539024 0.018659
v 0.173499 0.426675 -0.256772
v -0.741003 2.108944 -0.735002
v 0.588157 0.657609 -0.075989
v 0.206056 1.183785 -0.266040
v -0.373778 1.327253 -0.226933
v 0.435957 0.647665 -0.087906
v -0.247462 1.183507 -0.301704
v 0.732764 0.830662 0.086300
v -0.295922 1.095191 -0.421906
v 0.454262 0.789926 -0.151838
v -0.857617 2.184964 -0.663144
v -0.483749 1.460531 -0.141782
v 0.556764 0.854657 0.046154
v -0.858517 2.084163 -0.639398
v -0.508576 1.531777 0.236505
v -0.954622 2.058931 -0.513903
v -0.208595 2.246889 -0.242241
v 0.327184 1.367215 -0.137551
v 0.379983 1.433860 0.243409
v 0.178829 1.549347 0.018662
v -0.804582 0.439731 0.337854
v -0.885684 0.458163 0.074245
v 0.463907 1.040192 -0.182213
v -0.992256 0.980901 0.364618
v -0.669156 0.650382 0.060769
v -0.622168 0.555602 0.230832
v -0.609804 0.661014 0.209010
v -0.496893 0.524573 -0.270240
v -0.473490 0.405235 -0.372697
v -0.823151 0.412905 -0.082490
v -0.880986 1.783003 -0.413512
v -0.667495 0.578866 -0.057359
v -0.316080 0.581939 -0.327656
v -0.785656 1.881365 -0.669866
v -0.389417 0.630889 -0.120636
v -0.678487 0.720615 -0.056119
v -0.338314 0.912994 -0.440197
v -0.951016 0.901835 -0.056919
v 0.043179 1.124991 -0.395676
v -0.586206 0.411254 -0.160267
v -0.595659 1.543504 -0.041280
v -0.066176 0.408839 -0.286753
v 0.246448 0.538411 -0.269369
v -0.759627 1.705661 -0.088619
v -0.084126 0.628965 -0.397463
v 0.106915 0.818116 -0.392873
v -0.585114 0.823539 -0.176751
v 0.246862 0.686828 -0.324076
v -0.757206 0.905541 -0.227333
v -0.132382 1.008329 -0.472500
v 0.119556 0.433068 -0.153307
v -0.393160 0.446945 -0.215239
v -0.023206 0.428822 0.165513
v 0.241947 0.417254 -0.003453
v -0.481850 0.412005 0.059777
v 0.315495 0.415404 0.250770
v -0.289652 0.460037 0.460294
v -0.583379 0.799156 0.464365
v -0.747809 0.410483 0.241467
v 0.124024 0.447864 0.382664
v -0.453828 0.410855 0.332537
v -0.849663 0.741067 0.196032
v -0.457984 0.423153 0.517103
vn -0.2080 0.9699 -0.1265
vn -0.0164 0.9903 -0.1377
vn 0.1680 0.0596 -0.9840
vn 0.1249 -0.1173 0.9852
vn 0.1629 -0.9424 -0.2922
vn 0.8374 -0.2385 -0.4919
vn 0.9682 -0.0504 -0.2450
vn -0.8281 -0.0026 -0.5606
vn -0.2405 0.3655 0.8992
vn 0.2520 0.3546 0.9004
vn 0.8960 -0.0874 -0.4353
vn 0.2731 -0.4754 0.8363
vn 0.9236 0.3772 -0.0691
vn 0.1162 0.1440 0.9827
vn 0.0553 -0.2446 0.9681
vn 0.0110 0.3052 0.9522
vn -0.0346 0.2760 0.9605
vn 0.0317 -0.2153 0.9760
vn -0.0279 -0.6584 0.7522
vn -0.2374 0.9712 0.0176
vn 0.2279 0.6694 0.7071
vn 0.0262 0.8449 0.5343
vn -0.0229 0.5522 0.8334
vn -0.0236 -0.2011 0.9793
vn -0.1130 0.6731 0.7309
vn -0.1959 -0.0754 0.9777
vn -0.1187 0.2775 0.9534
vn 0.8920 0.4317 0.1343
vn 0.0116 0.1219 0.9925
vn 0.4064 -0.1645 0.8988
vn -0.3703 0.8741 0.3143
vn -0.0507 0.6425 0.7646
vn 0.1047 0.6123 0.7836
vn -0.2654 0.5931 0.7601
vn 0.2420 -0.0808 0.9669
vn 0.1247 0.8433 0.5228
vn -0.4371 0.8890 -0.1368
vn 0.0159 0.5222 0.8527
vn -0.4474 0.5569 0.6998
vn -0.8782 0.3286 -0.3475
vn -0.0737 0.5973 0.7986
vn -0.1902 -0.2704 0.9438
vn -0.0161 0.1244 0.9921
vn -0.0765 0.5001 0.8626
vn -0.3075 0.7231 0.6185
vn 0.3587 0.0575 0.9317
vn 0.5770 0.4303 0.6942
vn 0.7064 -0.0167 0.7076
vn 0.5920 -0.5264 0.6102
vn 0.8651 0.3507 0.3585
vn 0.3947 0.0787 0.9155
vn 0.0826 0.1268 0.9885
vn 0.5647 -0.0113 0.8252
vn 0.7294 0.2752 0.6263
vn 0.6288 0.5030 0.5930
vn 0.7942 -0.1859 0.5786
vn 0.6106 -0.1666 0.7742
vn 0.4221 0.3207 0.8479
vn 0.4438 0.4430 0.7790
vn 0.7486 0.4393 0.4967
vn 0.0983 -0.1658 0.9812
vn -0.6782 -0.0584 0.7326
vn 0.8200 -0.0098 0.5723
vn 0.0683 -0.5329 0.8434
vn 0.8011 -0.5497 -0.2369
vn 0.1270 0.8519 0.5080
vn -0.0602 -0.9569 0.2842
vn 0.8437 -0.0885 0.5295
vn 0.7145 -0.0707 0.6960
vn -0.3087 0.2112 -0.9274
vn 0.8486 -0.0222 0.5285
vn 0.5727 0.1900 0.7975
vn -0.0815 -0.9962 0.0318
vn 0.5141 -0.5382 0.6679
vn 0.3099 0.1538 0.9382
vn 0.2552 -0.9004 -0.3524
vn -0.2766 -0.1226 0.9531
vn 0.4749 -0.2003 0.8570
vn 0.8011 -0.5005 0.3284
vn 0.5071 -0.4211 0.7520
vn 0.9990 -0.0002 -0.0448
vn -0.7492 0.6586 0.0702
vn 0.6955 -0.3671 -0.6177
vn -0.8546 -0.3234 -0.4064
vn 0.7395 -0.2346 -0.6310
vn 0.3305 0.8748 -0.3542
vn 0.1557 0.2712 0.9498
vn -0.9242 -0.2414 -0.2959
vn -0.5499 0.6557 0.5174
vn -0.9024 -0.3777 0.2074
vn -0.1113 -0.3805 -0.9181
vn 0.7247 -0.6039 0.3318
vn 0.6741 -0.6764 -0.2968
vn -0.9926 -0.0397 0.1145
vn 0.0059 -0.9978 0.0666
vn -0.6035 0.7743 -0.1904
vn 0.9763 -0.2083 -0.0585
vn 0.7801 0.3927 -0.4871
vn 0.9214 -0.3476 -0.1737
vn 0.9507 0.0771 0.3003
vn 0.9765 -0.1138 0.1829
vn 0.9637 0.0282 0.2656
vn 0.9863 0.1501 0.0684
vn 0.9448 0.1531 -0.2897
vn 0.1665 0.9801 -0.1084
vn -0.6283 -0.7737 0.0812
vn 0.1600 0.9803 -0.1156
vn -0.8427 0.4850 0.2336
vn -0.0744 0.9970 0.0223
vn -0.4590 0.8031 0.3799
vn 0.6451 0.7000 0.3063
vn -0.5862 0.8047 -0.0938
vn -0.9708 0.2270 0.0771
vn 0.1357 0.9871 0.0853
vn -0.9240 0.2303 0.3054
vn -0.0604 0.7601 0.6469
vn 0.1141 0.9909 0.0720
vn 0.4086 0.8310 -0.3773
vn 0.7461 0.6307 -0.2137
vn 0.3176 0.8728 0.3707
vn 0.1063 0.9943 0.0087
vn 0.7351 0.6154 0.2844
vn -0.6535 0.5259 -0.5445
vn 0.1439 0.9846 0.0992
vn 0.6572 0.7217 -0.2173
vn 0.0657 0.7834 0.6180
vn 0.4218 0.8460 0.3261
vn -0.5254 0.8432 0.1141
vn 0.4528 0.8901 0.0521
vn 0.5127 0.7975 0.3180
vn -0.5894 0.1470 -0.7944
vn -0.3087 -0.2022 0.9294
vn -0.6524 0.6595 0.3733
vn -0.8672 -0.2738 0.4160
vn -0.7635 -0.2125 0.6098
vn -0.0956 0.1575 0.9829
vn 0.1743 -0.7824 -0.5979
vn -0.9917 0.1237 0.0357
vn -0.4383 0.7034 0.5596
vn -0.3492 -0.2305 0.9082
vn -0.5686 -0.2174 0.7934
vn -0.6403 -0.0214 0.7678
vn -0.2104 0.8349 0.5085
vn -0.9874 0.0055 0.1582
vn -0.8406 0.0510 0.5393
vn -0.3458 0.8010 0.4887
vn -0.9174 0.1810 0.3543
vn -0.5452 0.7069 0.4507
vn -0.7643 0.1858 0.6175
vn -0.3769 0.8259 0.4194
vn -0.7902 0.1264 0.5996
vn -0.8064 0.1828 0.5624
vn -0.0802 0.7140 -0.6956
vn -0.7725 -0.1391 -0.6196
vn -0.8722 -0.2502 -0.4203
vn 0.1605 0.7525 -0.6387
vn -0.7655 0.2381 -0.5978
vn -0.3209 -0.8505 -0.4168
vn -0.9920 -0.0195 -0.1247
vn -0.9415 -0.1635 -0.2949
vn -0.8241 -0.5640 -0.0523
vn -0.8574 0.2280 -0.4614
vn -0.9021 -0.2416 -0.3576
vn -0.9702 0.2311 0.0727
vn -0.6096 -0.3694 -0.7014
vn -0.9467 0.1930 -0.2578
vn -0.0703 0.4110 -0.9089
vn 0.2565 0.5384 -0.8027
vn 0.2941 -0.9554 -0.0265
vn -0.5687 0.5380 0.6223
vn -0.6745 0.3829 -0.6313
vn 0.0347 0.8930 -0.4487
vn -0.4639 -0.7001 -0.5428
vn -0.4748 0.0986 -0.8745
vn -0.6225 0.6499 -0.4360
vn -0.9345 0.0906 -0.3442
vn -0.9208 -0.2492 -0.3002
vn -0.9964 -0.0776 0.0329
vn -0.6188 0.6681 -0.4132
vn -0.3805 0.8607 -0.3383
vn 0.8869 -0.2794 -0.3678
vn 0.4775 0.4010 -0.7818
vn -0.0115 -0.9954 0.0951
vn -0.0260 0.8106 -0.5851
vn 0.0317 0.5302 -0.8473
vn 0.3125 -0.9492 -0.0361
vn 0.6793 0.6566 -0.3278
vn 0.0190 0.5297 -0.8479
vn 0.4437 0.3897 -0.8070
vn -0.1645 0.9809 -0.1039
vn 0.0761 0.2315 -0.9698
vn 0.5122 0.2809 -0.8116
vn 0.0871 0.5864 -0.8053
vn 0.1277 0.7036 -0.6991
vn -0.1895 0.6431 -0.7419
vn -0.1708 0.5161 -0.8393
vn 0.4420 0.3002 -0.8453
vn 0.2441 0.4431 -0.8626
vn -0.0972 0.4776 -0.8732
vn -0.4053 0.0018 -0.9142
vn -0.2836 0.3981 -0.8724
vn 0.3074 0.0332 -0.9510
vn 0.2383 -0.5787 -0.7800
vn 0.0979 -0.4141 -0.9049
vn 0.7236 0.3393 -0.6011
vn 0.6679 -0.1150 -0.7354
vn -0.4516 0.2751 -0.8488
vn 0.0324 0.1562 -0.9872
vn 0.4817 0.0552 -0.8746
vn -0.1320 -0.3985 -0.9076
vn -0.2741 0.4031 -0.8731
vn -0.6575 0.7087 -0.2557
vn 0.2594 -0.3347 -0.9059
vn -0.5010 -0.3762 -0.7794
vn 0.4648 0.0885 -0.8810
vn 0.2486 -0.2283 -0.9413
vn 0.3624 0.0668 -0.9296
vn 0.1890 -0.1674 -0.9676
vn 0.0332 -0.4733 -0.8803
vn -0.7669 -0.0539 -0.6395
vn 0.1362 -0.1983 -0.9706
vn -0.1382 -0.0384 -0.9897
vn 0.1963 -0.3508 -0.9156
vn -0.0046 -0.8222 -0.5692
vn 0.1133 0.1494 -0.9823
vn -0.6196 0.3209 -0.7163
vn -0.6145 -0.1033 -0.7821
vn -0.2109 -0.3273 -0.9211
vn -0.3780 0.0406 -0.9249
vn -0.1292 -0.7027 -0.6996
vn -0.0603 -0.2011 -0.9777
vn -0.0405 -0.9717 0.2328
vn -0.2197 0.1479 -0.9643
vn -0.1171 -0.5297 -0.8400
vn -0.1689 -0.9856 -0.0027
vn 0.0151 -0.9930 -0.1171
vn 0.1943 -0.9378 -0.2876
vn -0.0735 -0.9879 0.1365
vn -0.6315 -0.7706 0.0865
vn 0.3723 -0.7168 0.5896
vn -0.6588 -0.6991 -0.2779
vn -0.1241 -0.9923 -0.0034
vn 0.0622 -0.9936 0.0938
vn -0.0241 -0.9994 -0.0241
vn 0.3179 -0.9429 -0.0988
vn -0.1685 -0.9052 0.3901
vn -0.7407 -0.6209 0.2568
vn -0.6799 -0.7110 -0.1795
vn 0.4531 -0.8855 0.1032
vn -0.5770 -0.6707 0.4661
vn -0.6221 -0.6921 -0.3662
vn 0.3304 -0.9119 0.2433
vn -0.0051 -1.0000 0.0058
vn -0.4229 -0.9015 0.0916
vn -0.3200 -0.9272 0.1946
vn -0.3019 -0.8248 0.4781
vn 0.0005 -1.0000 -0.0076
vn -0.3013 -0.8253 0.4776
vn -0.0727 -0.9963 -0.0458
vn 0.2193 -0.9650 0.1437
vn -0.3937 -0.9180 0.0466
vn 0.1612 -0.9842 -0.0731
vn -0.4061 0.5481 -0.7312
vn -0.5980 -0.1787 -0.7813
vn -0.5286 -0.7962 -0.2943
vn 0.2453 0.2046 0.9476
vn 0.0149 -0.9987 0.0497
vn -0.0118 -0.9990 0.0422
vn 0.0027 -1.0000 -0.0045
vn -0.1732 -0.5085 -0.8435
vn 0.2360 -0.9692 0.0699
vn -0.0407 -0.9992 0.0045
s 0
f 19//1 1//1 27//1
f 37//2 42//2 95//2
f 32//3 55//3 119//3
f 35//4 64//4 15//4
f 55//5 109//5 119//5
f 78//6 83//6 75//6
f 98//7 29//7 34//7
f 73//8 1//8 19//8
f 48//9 47//9 38//9
f 31//10 49//10 46//10
f 85//11 98//11 88//11
f 13//12 21//12 12//12
f 88//13 98//13 34//13
f 31//14 46//14 30//14
f 41//15 39//15 48//15
f 48//16 39//16 47//16
f 39//17 14//17 47//17
f 39//18 41//18 133//18
f 9//19 12//19 21//19
f 37//20 26//20 42//20
f 14//21 90//21 47//21
f 6//22 10//22 20//22
f 49//23 3//23 53//23
f 133//24 45//24 39//24
f 28//25 90//25 14//25
f 10//26 45//26 133//26
f 51//27 14//27 39//27
f 29//28 94//28 68//28
f 45//29 51//29 39//29
f 18//30 45//30 10//30
f 26//31 52//31 28//31
f 51//32 28//32 14//32
f 34//33 24//33 69//33
f 51//34 26//34 28//34
f 21//35 31//35 30//35
f 3//36 42//36 26//36
f 6//37 20//37 101//37
f 26//38 53//38 3//38
f 46//39 45//39 44//39
f 73//40 19//40 16//40
f 24//41 34//41 67//41
f 9//42 30//42 44//42
f 30//43 46//43 44//43
f 53//44 26//44 51//44
f 8//45 23//45 5//45
f 13//46 71//46 21//46
f 64//47 70//47 15//47
f 15//48 70//48 22//48
f 47//49 64//49 35//49
f 92//50 61//50 2//50
f 67//51 12//51 56//51
f 138//52 6//52 60//52
f 66//53 31//53 71//53
f 64//54 90//54 70//54
f 66//55 94//55 3//55
f 64//56 47//56 90//56
f 67//57 71//57 13//57
f 66//58 49//58 31//58
f 66//59 3//59 49//59
f 66//60 68//60 94//60
f 56//61 12//61 9//61
f 57//62 11//62 138//62
f 34//63 68//63 67//63
f 131//64 24//64 67//64
f 76//65 118//65 129//65
f 61//66 8//66 7//66
f 126//67 127//67 104//67
f 65//68 69//68 24//68
f 67//69 66//69 71//69
f 62//70 80//70 82//70
f 67//71 68//71 66//71
f 61//72 92//72 8//72
f 128//73 132//73 127//73
f 67//74 13//74 12//74
f 57//75 9//75 11//75
f 36//76 61//76 7//76
f 10//77 133//77 20//77
f 21//78 71//78 31//78
f 92//79 23//79 8//79
f 58//80 7//80 8//80
f 109//81 17//81 119//81
f 115//82 110//82 103//82
f 123//83 85//83 81//83
f 4//84 43//84 16//84
f 123//85 81//85 118//85
f 87//86 116//86 52//86
f 10//87 6//87 138//87
f 63//88 33//88 40//88
f 97//89 101//89 100//89
f 99//90 33//90 63//90
f 110//91 122//91 62//91
f 56//92 131//92 67//92
f 118//93 81//93 129//93
f 73//94 72//94 1//94
f 136//95 138//95 60//95
f 6//96 101//96 96//96
f 17//97 109//97 77//97
f 98//98 93//98 29//98
f 75//99 83//99 65//99
f 70//100 8//100 22//100
f 65//101 83//101 69//101
f 70//102 58//102 8//102
f 29//103 68//103 34//103
f 116//104 58//104 90//104
f 34//105 69//105 83//105
f 43//106 4//106 38//106
f 88//107 34//107 83//107
f 33//108 38//108 4//108
f 37//109 52//109 26//109
f 86//110 91//110 50//110
f 77//111 86//111 50//111
f 19//112 27//112 50//112
f 43//113 72//113 73//113
f 5//114 27//114 8//114
f 60//115 6//115 96//115
f 22//116 27//116 15//116
f 50//117 27//117 5//117
f 50//118 5//118 17//118
f 29//119 93//119 94//119
f 52//120 90//120 28//120
f 116//121 90//121 52//121
f 58//122 70//122 90//122
f 96//123 101//123 134//123
f 8//124 27//124 22//124
f 93//125 95//125 94//125
f 49//126 53//126 46//126
f 42//127 3//127 94//127
f 92//128 5//128 23//128
f 95//129 42//129 94//129
f 77//130 50//130 17//130
f 36//131 5//131 2//131
f 9//132 21//132 30//132
f 19//133 50//133 91//133
f 45//134 9//134 44//134
f 45//135 18//135 9//135
f 53//136 51//136 45//136
f 36//137 7//137 58//137
f 101//138 133//138 102//138
f 72//139 15//139 27//139
f 35//140 15//140 25//140
f 41//141 48//141 99//141
f 48//142 38//142 99//142
f 11//143 9//143 18//143
f 101//144 20//144 133//144
f 99//145 38//145 33//145
f 11//146 18//146 10//146
f 102//147 100//147 101//147
f 27//148 1//148 72//148
f 138//149 11//149 10//149
f 45//150 46//150 53//150
f 25//151 15//151 74//151
f 15//152 72//152 74//152
f 59//153 80//153 37//153
f 91//154 86//154 89//154
f 106//155 89//155 109//155
f 37//156 93//156 59//156
f 62//157 84//157 112//157
f 19//158 91//158 89//158
f 106//159 19//159 89//159
f 112//160 108//160 110//160
f 106//161 55//161 19//161
f 104//162 115//162 103//162
f 112//163 110//163 62//163
f 74//164 72//164 43//164
f 124//165 113//165 40//165
f 73//166 16//166 43//166
f 59//167 82//167 80//167
f 83//168 78//168 88//168
f 132//169 130//169 127//169
f 134//170 101//170 97//170
f 4//171 32//171 40//171
f 82//172 79//172 114//172
f 111//173 113//173 124//173
f 16//174 19//174 55//174
f 97//175 107//175 105//175
f 33//176 4//176 40//176
f 113//177 63//177 40//177
f 100//178 111//178 107//178
f 100//179 107//179 97//179
f 110//180 108//180 103//180
f 88//181 81//181 85//181
f 79//182 98//182 114//182
f 135//183 132//183 128//183
f 82//184 114//184 84//184
f 88//185 78//185 81//185
f 132//186 136//186 130//186
f 5//187 36//187 17//187
f 114//188 125//188 84//188
f 36//189 119//189 17//189
f 52//190 37//190 87//190
f 79//191 82//191 59//191
f 36//192 116//192 119//192
f 87//193 37//193 80//193
f 95//194 93//194 37//194
f 116//195 87//195 32//195
f 87//196 54//196 32//196
f 93//197 98//197 79//197
f 93//198 79//198 59//198
f 87//199 80//199 54//199
f 16//200 55//200 32//200
f 115//201 105//201 107//201
f 32//202 119//202 116//202
f 129//203 78//203 75//203
f 129//204 81//204 78//204
f 58//205 116//205 36//205
f 85//206 123//206 98//206
f 40//207 32//207 54//207
f 62//208 54//208 80//208
f 123//209 121//209 98//209
f 107//210 122//210 110//210
f 115//211 107//211 110//211
f 84//212 62//212 82//212
f 118//213 120//213 123//213
f 4//214 16//214 32//214
f 121//215 114//215 98//215
f 123//216 120//216 121//216
f 125//217 114//217 121//217
f 121//218 120//218 125//218
f 122//219 124//219 62//219
f 111//220 122//220 107//220
f 76//221 117//221 118//221
f 124//222 54//222 62//222
f 117//223 104//223 118//223
f 108//224 120//224 118//224
f 118//225 104//225 108//225
f 2//226 5//226 92//226
f 89//227 77//227 109//227
f 108//228 112//228 120//228
f 40//229 54//229 124//229
f 124//230 122//230 111//230
f 120//231 112//231 125//231
f 117//232 126//232 104//232
f 112//233 84//233 125//233
f 36//234 2//234 61//234
f 131//235 56//235 135//235
f 56//236 138//236 135//236
f 55//237 106//237 109//237
f 135//238 128//238 131//238
f 38//239 74//239 43//239
f 65//240 24//240 131//240
f 38//241 25//241 74//241
f 129//242 126//242 76//242
f 76//243 126//243 117//243
f 126//244 128//244 127//244
f 75//245 131//245 129//245
f 38//246 35//246 25//246
f 63//247 137//247 99//247
f 113//248 137//248 63//248
f 65//249 131//249 75//249
f 41//250 99//250 137//250
f 111//251 100//251 137//251
f 47//252 35//252 38//252
f 115//253 130//253 105//253
f 134//254 97//254 105//254
f 100//255 102//255 137//255
f 137//256 133//256 41//256
f 134//257 105//257 130//257
f 102//258 133//258 137//258
f 126//259 129//259 128//259
f 104//260 127//260 115//260
f 134//261 60//261 96//261
f 130//262 115//262 127//262
f 104//263 103//263 108//263
f 89//264 86//264 77//264
f 137//265 113//265 111//265
f 56//266 9//266 57//266
f 56//267 57//267 138//267
f 60//268 134//268 136//268
f 136//269 134//269 130//269
f 135//270 138//270 132//270
f 138//271 136//271 132//271
f 131//272 128//272 129//272
